{
  "accessors": [
    {
      "bufferView": 2,
      "componentType": 5126,
      "count": 23764,
      "max": [
        5.310553073883057,
        5.559722900390625,
        2.0604090690612793
      ],
      "min": [
        -5.381077766418457,
        -5.144347190856934,
        -0.01182899996638298
      ],
      "type": "VEC3"
    },
    {
      "bufferView": 2,
      "byteOffset": 285168,
      "componentType": 5126,
      "count": 23764,
      "max": [
        0.9997949600219727,
        0.9997578859329224,
        0.9999402165412903
      ],
      "min": [
        -0.9997904896736145,
        -0.999933660030365,
        -0.71309894323349
      ],
      "type": "VEC3"
    },
    {
      "bufferView": 1,
      "componentType": 5126,
      "count": 23764,
      "max": [
        0.0,
        0.0
      ],
      "min": [
        0.0,
        0.0
      ],
      "type": "VEC2"
    },
    {
      "bufferView": 0,
      "componentType": 5125,
      "count": 139299,
      "type": "SCALAR"
    }
  ],
  "asset": {
    "extras": {
      "author": "haisanberg (https://sketchfab.com/haisanberg)",
      "license": "CC-BY-4.0 (http://creativecommons.org/licenses/by/4.0/)",
      "source": "https://sketchfab.com/3d-models/bubble-db5b743912b54121ba84b2a4421e3478",
      "title": "Bubble"
    },
    "generator": "Sketchfab-13.35.0",
    "version": "2.0"
  },
  "bufferViews": [
    {
      "buffer": 0,
      "byteLength": 557196,
      "name": "floatBufferViews",
      "target": 34963
    },
    {
      "buffer": 0,
      "byteLength": 190112,
      "byteOffset": 557196,
      "byteStride": 8,
      "name": "floatBufferViews",
      "target": 34962
    },
    {
      "buffer": 0,
      "byteLength": 570336,
      "byteOffset": 747308,
      "byteStride": 12,
      "name": "floatBufferViews",
      "target": 34962
    }
  ],
  "buffers": [
    {
      "byteLength": 1317644,
      "uri": "scene.bin"
    }
  ],
  "extensionsRequired": [
    "KHR_materials_pbrSpecularGlossiness"
  ],
  "extensionsUsed": [
    "KHR_materials_pbrSpecularGlossiness"
  ],
  "images": [
    {
      "uri": "textures/Bubble_diffuse.png"
    }
  ],
  "materials": [
    {
      "alphaMode": "BLEND",
      "doubleSided": true,
      "extensions": {
        "KHR_materials_pbrSpecularGlossiness": {
          "diffuseFactor": [
            1.0,
            1.0,
            1.0,
            0.4434299228340505
          ],
          "diffuseTexture": {
            "index": 0
          },
          "glossinessFactor": 0.6628591629993539,
          "specularFactor": [
            0.0228572125172191,
            0.0228572125172191,
            0.0228572125172191
          ]
        }
      },
      "name": "Bubble"
    }
  ],
  "meshes": [
    {
      "name": "Object_0",
      "primitives": [
        {
          "attributes": {
            "NORMAL": 1,
            "POSITION": 0,
            "TEXCOORD_0": 2
          },
          "indices": 3,
          "material": 0,
          "mode": 4
        }
      ]
    }
  ],
  "nodes": [
    {
      "children": [
        1
      ],
      "matrix": [
        7.85434103012085,
        0.0,
        0.0,
        0.0,
        0.0,
        1.7440140509796475e-15,
        -7.85434103012085,
        0.0,
        0.0,
        7.85434103012085,
        1.7440140509796475e-15,
        0.0,
        0.0,
        0.0,
        0.0,
        1.0
      ],
      "name": "Sketchfab_model"
    },
    {
      "children": [
        2
      ],
      "name": "Bubble.obj.cleaner.materialmerger.gles"
    },
    {
      "mesh": 0,
      "name": "Object_2"
    }
  ],
  "samplers": [
    {
      "magFilter": 9729,
      "minFilter": 9987,
      "wrapS": 10497,
      "wrapT": 10497
    }
  ],
  "scene": 0,
  "scenes": [
    {
      "name": "Sketchfab_Scene",
      "nodes": [
        0
      ]
    }
  ],
  "textures": [
    {
      "sampler": 0,
      "source": 0
    }
  ]
}
